<?xml version="1.0" encoding="utf-8"?>
<svg xmlns="http://www.w3.org/2000/svg" width="137" height="19" viewBox="0 0 137 19" fill="none" role="img" aria-labelledby="title-beeai-framework-logo">
<title id="title-beeai-framework-logo">BeeAI Framework logo</title>
<g clip-path="url(#clip0_6330_1692)">
<path d="M1.14773 15V3.36364H5.60227C6.44318 3.36364 7.14205 3.49621 7.69886 3.76136C8.25947 4.02273 8.67803 4.38068 8.95455 4.83523C9.23485 5.28977 9.375 5.80492 9.375 6.38068C9.375 6.85417 9.28409 7.25947 9.10227 7.59659C8.92045 7.92992 8.67614 8.20076 8.36932 8.40909C8.0625 8.61742 7.7197 8.76705 7.34091 8.85795V8.97159C7.75379 8.99432 8.14962 9.12121 8.52841 9.35227C8.91098 9.57955 9.22348 9.90151 9.46591 10.3182C9.70833 10.7348 9.82955 11.2386 9.82955 11.8295C9.82955 12.4318 9.68371 12.9735 9.39205 13.4545C9.10038 13.9318 8.66099 14.3087 8.07386 14.5852C7.48674 14.8617 6.74811 15 5.85795 15H1.14773ZM3.25568 13.2386H5.52273C6.28788 13.2386 6.83902 13.0928 7.17614 12.8011C7.51705 12.5057 7.6875 12.1269 7.6875 11.6648C7.6875 11.3201 7.60227 11.0095 7.43182 10.733C7.26136 10.4527 7.01894 10.233 6.70455 10.0739C6.39015 9.91098 6.01515 9.82955 5.57955 9.82955H3.25568V13.2386ZM3.25568 8.3125H5.34091C5.70455 8.3125 6.0322 8.24621 6.32386 8.11364C6.61553 7.97727 6.8447 7.78598 7.01136 7.53977C7.18182 7.28977 7.26705 6.99432 7.26705 6.65341C7.26705 6.20265 7.10795 5.83144 6.78977 5.53977C6.47538 5.24811 6.00758 5.10227 5.38636 5.10227H3.25568V8.3125ZM15.4361 15.1705C14.5611 15.1705 13.8054 14.9886 13.169 14.625C12.5365 14.2576 12.0497 13.7386 11.7088 13.0682C11.3679 12.3939 11.1974 11.6004 11.1974 10.6875C11.1974 9.78977 11.3679 9.00189 11.7088 8.32386C12.0535 7.64205 12.5346 7.11174 13.152 6.73295C13.7694 6.35038 14.4948 6.15909 15.3281 6.15909C15.866 6.15909 16.3736 6.24621 16.8509 6.42045C17.3319 6.59091 17.7562 6.85606 18.1236 7.21591C18.4948 7.57576 18.7865 8.03409 18.9986 8.59091C19.2107 9.14394 19.3168 9.80303 19.3168 10.5682V11.1989H12.1634V9.8125H17.3452C17.3414 9.41856 17.2562 9.06818 17.0895 8.76136C16.9228 8.45076 16.6899 8.20644 16.3906 8.02841C16.0952 7.85038 15.7505 7.76136 15.3565 7.76136C14.9361 7.76136 14.5668 7.86364 14.2486 8.06818C13.9304 8.26894 13.6823 8.53409 13.5043 8.86364C13.33 9.18939 13.241 9.54735 13.2372 9.9375V11.1477C13.2372 11.6553 13.33 12.0909 13.5156 12.4545C13.7012 12.8144 13.9607 13.0909 14.294 13.2841C14.6274 13.4735 15.0175 13.5682 15.4645 13.5682C15.7637 13.5682 16.0346 13.5265 16.277 13.4432C16.5194 13.3561 16.7296 13.2292 16.9077 13.0625C17.0857 12.8958 17.2202 12.6894 17.3111 12.4432L19.2315 12.6591C19.1103 13.1667 18.8793 13.6098 18.5384 13.9886C18.2012 14.3636 17.7694 14.6553 17.2429 14.8636C16.7164 15.0682 16.1141 15.1705 15.4361 15.1705ZM24.9205 15.1705C24.0455 15.1705 23.2898 14.9886 22.6534 14.625C22.0208 14.2576 21.5341 13.7386 21.1932 13.0682C20.8523 12.3939 20.6818 11.6004 20.6818 10.6875C20.6818 9.78977 20.8523 9.00189 21.1932 8.32386C21.5379 7.64205 22.0189 7.11174 22.6364 6.73295C23.2538 6.35038 23.9792 6.15909 24.8125 6.15909C25.3504 6.15909 25.858 6.24621 26.3352 6.42045C26.8163 6.59091 27.2405 6.85606 27.608 7.21591C27.9792 7.57576 28.2708 8.03409 28.483 8.59091C28.6951 9.14394 28.8011 9.80303 28.8011 10.5682V11.1989H21.6477V9.8125H26.8295C26.8258 9.41856 26.7405 9.06818 26.5739 8.76136C26.4072 8.45076 26.1742 8.20644 25.875 8.02841C25.5795 7.85038 25.2348 7.76136 24.8409 7.76136C24.4205 7.76136 24.0511 7.86364 23.733 8.06818C23.4148 8.26894 23.1667 8.53409 22.9886 8.86364C22.8144 9.18939 22.7254 9.54735 22.7216 9.9375V11.1477C22.7216 11.6553 22.8144 12.0909 23 12.4545C23.1856 12.8144 23.4451 13.0909 23.7784 13.2841C24.1117 13.4735 24.5019 13.5682 24.9489 13.5682C25.2481 13.5682 25.5189 13.5265 25.7614 13.4432C26.0038 13.3561 26.214 13.2292 26.392 13.0625C26.5701 12.8958 26.7045 12.6894 26.7955 12.4432L28.7159 12.6591C28.5947 13.1667 28.3636 13.6098 28.0227 13.9886C27.6856 14.3636 27.2538 14.6553 26.7273 14.8636C26.2008 15.0682 25.5985 15.1705 24.9205 15.1705ZM32.1264 15H29.8764L33.973 3.36364H36.5753L40.6776 15H38.4276L35.3196 5.75H35.2287L32.1264 15ZM32.2003 10.4375H38.3366V12.1307H32.2003V10.4375ZM44.3182 3.36364V15H42.2102V3.36364H44.3182ZM50.5696 15V3.36364H58.0241V5.13068H52.6776V8.28977H57.5128V10.0568H52.6776V15H50.5696ZM59.7287 15V6.27273H61.723V7.72727H61.8139C61.973 7.22348 62.2457 6.83523 62.6321 6.5625C63.0223 6.28598 63.4673 6.14773 63.9673 6.14773C64.081 6.14773 64.2079 6.15341 64.348 6.16477C64.492 6.17235 64.6113 6.18561 64.706 6.20455V8.09659C64.6188 8.06629 64.4806 8.03977 64.2912 8.01705C64.1056 7.99053 63.9257 7.97727 63.7514 7.97727C63.3764 7.97727 63.0393 8.05871 62.7401 8.22159C62.4446 8.38068 62.2116 8.60227 62.0412 8.88636C61.8707 9.17045 61.7855 9.49811 61.7855 9.86932V15H59.7287ZM68.4276 15.1761C67.8745 15.1761 67.3764 15.0777 66.9332 14.8807C66.4938 14.6799 66.1454 14.3845 65.8878 13.9943C65.634 13.6042 65.5071 13.1231 65.5071 12.5511C65.5071 12.0587 65.598 11.6515 65.7798 11.3295C65.9616 11.0076 66.2098 10.75 66.5241 10.5568C66.8385 10.3636 67.1927 10.2178 67.5866 10.1193C67.9844 10.017 68.3954 9.94318 68.8196 9.89773C69.331 9.8447 69.7457 9.79735 70.0639 9.75568C70.3821 9.71023 70.6132 9.64205 70.7571 9.55114C70.9048 9.45644 70.9787 9.31061 70.9787 9.11364V9.07955C70.9787 8.65152 70.8518 8.32008 70.598 8.08523C70.3442 7.85038 69.9787 7.73295 69.5014 7.73295C68.9976 7.73295 68.598 7.8428 68.3026 8.0625C68.0109 8.2822 67.8139 8.54167 67.7116 8.84091L65.7912 8.56818C65.9427 8.03788 66.1927 7.5947 66.5412 7.23864C66.8897 6.87879 67.3158 6.60985 67.8196 6.43182C68.3234 6.25 68.8802 6.15909 69.4901 6.15909C69.9105 6.15909 70.3291 6.20833 70.7457 6.30682C71.1624 6.4053 71.5431 6.56818 71.8878 6.79545C72.2325 7.01894 72.509 7.32386 72.7173 7.71023C72.9295 8.09659 73.0355 8.57955 73.0355 9.15909V15H71.0582V13.8011H70.9901C70.8651 14.0436 70.6889 14.2708 70.4616 14.483C70.2382 14.6913 69.956 14.8598 69.6151 14.9886C69.2779 15.1136 68.8821 15.1761 68.4276 15.1761ZM68.9616 13.6648C69.3745 13.6648 69.7325 13.5833 70.0355 13.4205C70.3385 13.2538 70.5715 13.0341 70.7344 12.7614C70.901 12.4886 70.9844 12.1913 70.9844 11.8693V10.8409C70.92 10.8939 70.8101 10.9432 70.6548 10.9886C70.5033 11.0341 70.3329 11.0739 70.1435 11.108C69.9541 11.142 69.7666 11.1723 69.581 11.1989C69.3954 11.2254 69.2344 11.2481 69.098 11.267C68.7912 11.3087 68.5166 11.3769 68.2741 11.4716C68.0317 11.5663 67.8404 11.6989 67.7003 11.8693C67.5601 12.036 67.4901 12.2519 67.4901 12.517C67.4901 12.8958 67.6283 13.1818 67.9048 13.375C68.1813 13.5682 68.5336 13.6648 68.9616 13.6648ZM75.1037 15V6.27273H77.0696V7.75568H77.1719C77.3537 7.25568 77.6548 6.86553 78.0753 6.58523C78.4957 6.30114 78.9976 6.15909 79.581 6.15909C80.1719 6.15909 80.67 6.30303 81.0753 6.59091C81.4844 6.875 81.7723 7.26326 81.9389 7.75568H82.0298C82.223 7.27083 82.5488 6.88447 83.0071 6.59659C83.4692 6.30492 84.0166 6.15909 84.6491 6.15909C85.4522 6.15909 86.1075 6.41288 86.6151 6.92045C87.1226 7.42803 87.3764 8.16856 87.3764 9.14205V15H85.3139V9.46023C85.3139 8.91856 85.17 8.52273 84.8821 8.27273C84.5942 8.01894 84.242 7.89205 83.8253 7.89205C83.3291 7.89205 82.9408 8.04735 82.6605 8.35795C82.384 8.66477 82.2457 9.06439 82.2457 9.55682V15H80.2287V9.375C80.2287 8.92424 80.0923 8.56439 79.8196 8.29545C79.5507 8.02651 79.1984 7.89205 78.7628 7.89205C78.4673 7.89205 78.1984 7.9678 77.956 8.11932C77.7135 8.26705 77.5204 8.47727 77.3764 8.75C77.2325 9.01894 77.1605 9.33333 77.1605 9.69318V15H75.1037ZM93.3267 15.1705C92.4517 15.1705 91.696 14.9886 91.0597 14.625C90.4271 14.2576 89.9403 13.7386 89.5994 13.0682C89.2585 12.3939 89.0881 11.6004 89.0881 10.6875C89.0881 9.78977 89.2585 9.00189 89.5994 8.32386C89.9441 7.64205 90.4252 7.11174 91.0426 6.73295C91.66 6.35038 92.3854 6.15909 93.2188 6.15909C93.7566 6.15909 94.2642 6.24621 94.7415 6.42045C95.2225 6.59091 95.6468 6.85606 96.0142 7.21591C96.3854 7.57576 96.6771 8.03409 96.8892 8.59091C97.1013 9.14394 97.2074 9.80303 97.2074 10.5682V11.1989H90.054V9.8125H95.2358C95.232 9.41856 95.1468 9.06818 94.9801 8.76136C94.8134 8.45076 94.5805 8.20644 94.2812 8.02841C93.9858 7.85038 93.6411 7.76136 93.2472 7.76136C92.8267 7.76136 92.4574 7.86364 92.1392 8.06818C91.821 8.26894 91.5729 8.53409 91.3949 8.86364C91.2206 9.18939 91.1316 9.54735 91.1278 9.9375V11.1477C91.1278 11.6553 91.2206 12.0909 91.4062 12.4545C91.5919 12.8144 91.8513 13.0909 92.1847 13.2841C92.518 13.4735 92.9081 13.5682 93.3551 13.5682C93.6544 13.5682 93.9252 13.5265 94.1676 13.4432C94.41 13.3561 94.6203 13.2292 94.7983 13.0625C94.9763 12.8958 95.1108 12.6894 95.2017 12.4432L97.1222 12.6591C97.0009 13.1667 96.7699 13.6098 96.429 13.9886C96.0919 14.3636 95.66 14.6553 95.1335 14.8636C94.607 15.0682 94.0047 15.1705 93.3267 15.1705ZM100.702 15L98.2358 6.27273H100.332L101.866 12.4091H101.946L103.514 6.27273H105.588L107.156 12.375H107.241L108.753 6.27273H110.855L108.384 15H106.241L104.605 9.10227H104.486L102.849 15H100.702ZM115.848 15.1705C114.996 15.1705 114.257 14.983 113.632 14.608C113.007 14.233 112.522 13.7083 112.178 13.0341C111.837 12.3598 111.666 11.572 111.666 10.6705C111.666 9.76894 111.837 8.97917 112.178 8.30114C112.522 7.62311 113.007 7.09659 113.632 6.72159C114.257 6.34659 114.996 6.15909 115.848 6.15909C116.7 6.15909 117.439 6.34659 118.064 6.72159C118.689 7.09659 119.172 7.62311 119.513 8.30114C119.857 8.97917 120.03 9.76894 120.03 10.6705C120.03 11.572 119.857 12.3598 119.513 13.0341C119.172 13.7083 118.689 14.233 118.064 14.608C117.439 14.983 116.7 15.1705 115.848 15.1705ZM115.859 13.5227C116.321 13.5227 116.708 13.3958 117.018 13.142C117.329 12.8845 117.56 12.5398 117.712 12.108C117.867 11.6761 117.945 11.1951 117.945 10.6648C117.945 10.1307 117.867 9.64773 117.712 9.21591C117.56 8.7803 117.329 8.43371 117.018 8.17614C116.708 7.91856 116.321 7.78977 115.859 7.78977C115.386 7.78977 114.992 7.91856 114.678 8.17614C114.367 8.43371 114.134 8.7803 113.979 9.21591C113.827 9.64773 113.751 10.1307 113.751 10.6648C113.751 11.1951 113.827 11.6761 113.979 12.108C114.134 12.5398 114.367 12.8845 114.678 13.142C114.992 13.3958 115.386 13.5227 115.859 13.5227ZM121.776 15V6.27273H123.77V7.72727H123.861C124.02 7.22348 124.293 6.83523 124.679 6.5625C125.069 6.28598 125.514 6.14773 126.014 6.14773C126.128 6.14773 126.255 6.15341 126.395 6.16477C126.539 6.17235 126.658 6.18561 126.753 6.20455V8.09659C126.666 8.06629 126.527 8.03977 126.338 8.01705C126.152 7.99053 125.973 7.97727 125.798 7.97727C125.423 7.97727 125.086 8.05871 124.787 8.22159C124.491 8.38068 124.259 8.60227 124.088 8.88636C123.918 9.17045 123.832 9.49811 123.832 9.86932V15H121.776ZM129.994 12.2614L129.989 9.77841H130.318L133.455 6.27273H135.858L132 10.5682H131.574L129.994 12.2614ZM128.119 15V3.36364H130.176V15H128.119ZM133.597 15L130.756 11.0284L132.142 9.57955L136.057 15H133.597Z" fill="black"/>
</g>
<defs>
<clipPath id="clip0_6330_1692">
<rect width="137" height="19" fill="white"/>
</clipPath>
</defs>
</svg>