<svg width="236" height="40" viewBox="0 0 236 40" fill="none" xmlns="http://www.w3.org/2000/svg">
<path d="M33.9555 0H6.54446C2.99909 0 0.125 2.85624 0.125 6.37958V33.6204C0.125 37.1438 2.99909 40 6.54446 40H33.9555C37.5009 40 40.375 37.1438 40.375 33.6204V6.37958C40.375 2.85624 37.5009 0 33.9555 0Z" fill="black"/>
<path d="M33.9555 0H6.54446C2.99909 0 0.125 2.85624 0.125 6.37958V33.6204C0.125 37.1438 2.99909 40 6.54446 40H33.9555C37.5009 40 40.375 37.1438 40.375 33.6204V6.37958C40.375 2.85624 37.5009 0 33.9555 0Z" fill="black" fill-opacity="0.2"/>
<path d="M33.9555 0H6.54446C2.99909 0 0.125 2.85624 0.125 6.37958V33.6204C0.125 37.1438 2.99909 40 6.54446 40H33.9555C37.5009 40 40.375 37.1438 40.375 33.6204V6.37958C40.375 2.85624 37.5009 0 33.9555 0Z" fill="black" fill-opacity="0.2"/>
<path d="M30.6958 34.4915C30.6958 34.4915 32.4699 31.5635 28.3188 29.466C28.3188 29.466 29.1225 32.5974 27.2415 35.5H25.3092C25.3092 35.5 25.2236 34.8898 26.0402 34.5805C27.7502 33.9279 27.8186 31.144 27.3184 30.8092C25.7922 29.7923 25.1894 28.9236 25.5828 26.7117C25.5828 26.7117 22.9408 27.6694 19.6575 27.2583C19.4865 27.2371 19.3198 27.3177 19.2343 27.466C19.059 27.7668 18.7041 28.3092 18.1185 28.9363C18.1185 28.9363 17.9688 30.6694 17.5755 31.9025C17.5755 31.9025 17.7252 34.0127 17.1865 35.4958H14.8779C14.8779 35.4958 14.9036 34.5763 16.0151 34.4576C17.3746 34.3135 15.7714 30.1228 15.7714 30.1228C15.7714 30.1228 15.703 32.4067 14.3179 35.4873H12.5523C12.5523 35.4873 12.5523 34.5974 13.4501 34.3771C14.9079 34.0169 14.2581 31.4152 14.0229 29.9702C13.7878 28.5211 13.4586 25.8134 12.2659 24.3091C11.0731 22.8049 10.4661 22.8176 10.3934 20.0548C10.3934 20.0548 9.38019 18.47 9.74357 16.381C9.74357 16.381 8.98688 13.8725 10.1241 10.1648C10.1241 10.1648 7.43503 9.62244 7.38372 8.96141C7.32815 8.30038 7.52908 7.55037 8.24729 7.48681C8.9655 7.42325 10.0172 7.31731 10.0215 6.5673C10.0215 5.81729 9.10658 4.82151 9.67517 4.52913C10.2053 4.2537 10.8209 6.02916 11.227 5.74949C11.4921 5.56728 10.5045 4.60964 11.1501 4.741C11.4151 4.79608 13.6638 5.53338 14.4248 9.42328C15.1858 13.3132 14.8694 15.9107 15.9681 15.9107C17.0668 15.9107 22.09 15.7285 25.0227 16.4404C27.9554 17.1522 28.0751 18.2667 29.3619 17.9446C30.6487 17.6226 32.1279 16.8514 32.9658 19.6777C33.7054 22.165 31.6277 21.8515 31.6277 22.6311C31.6277 23.4108 31.3498 24.6185 31.6662 25.3558C31.9826 26.0931 31.8073 27.8728 32.0852 28.8812C32.363 29.8897 32.6965 30.805 32.0681 32.1059C32.0681 32.1059 32.3759 34.2966 31.6833 35.5H30.016C30.016 35.5 29.8963 34.8135 30.7086 34.4915H30.6958Z" fill="url(#paint0_linear_4127_35669)"/>
<path d="M53.625 7.25H57.6864V30.1167H70.6352V33.8065H53.625V7.25Z" fill="black"/>
<path d="M53.625 7.25H57.6864V30.1167H70.6352V33.8065H53.625V7.25Z" fill="black" fill-opacity="0.2"/>
<path d="M53.625 7.25H57.6864V30.1167H70.6352V33.8065H53.625V7.25Z" fill="black" fill-opacity="0.2"/>
<path d="M92.9068 31.5547C91.2626 33.5826 89.1742 34.2457 86.8723 34.2457C82.6657 34.2457 79.9581 32.2178 79.9581 28.5279C79.9581 25.1352 82.4436 23.4001 87.0175 22.5519L92.7616 21.4841V20.2312C92.7616 18.2033 91.5188 17.3551 88.9564 17.3551C86.7613 17.3551 84.6387 18.1301 84.532 20.6359H80.7268C80.8378 16.0247 84.643 14.1819 88.9564 14.1819C94.077 14.1819 96.5283 16.3562 96.5283 19.8222V33.7979H92.9068V31.5461V31.5547ZM87.4574 31.15C90.054 31.15 92.7616 29.712 92.7616 26.2805V24.3645L87.6752 25.4323C85.369 25.9102 83.9085 26.4656 83.9085 28.4203C83.9085 30.0435 85.006 31.15 87.4574 31.15Z" fill="black"/>
<path d="M92.9068 31.5547C91.2626 33.5826 89.1742 34.2457 86.8723 34.2457C82.6657 34.2457 79.9581 32.2178 79.9581 28.5279C79.9581 25.1352 82.4436 23.4001 87.0175 22.5519L92.7616 21.4841V20.2312C92.7616 18.2033 91.5188 17.3551 88.9564 17.3551C86.7613 17.3551 84.6387 18.1301 84.532 20.6359H80.7268C80.8378 16.0247 84.643 14.1819 88.9564 14.1819C94.077 14.1819 96.5283 16.3562 96.5283 19.8222V33.7979H92.9068V31.5461V31.5547ZM87.4574 31.15C90.054 31.15 92.7616 29.712 92.7616 26.2805V24.3645L87.6752 25.4323C85.369 25.9102 83.9085 26.4656 83.9085 28.4203C83.9085 30.0435 85.006 31.15 87.4574 31.15Z" fill="black" fill-opacity="0.2"/>
<path d="M92.9068 31.5547C91.2626 33.5826 89.1742 34.2457 86.8723 34.2457C82.6657 34.2457 79.9581 32.2178 79.9581 28.5279C79.9581 25.1352 82.4436 23.4001 87.0175 22.5519L92.7616 21.4841V20.2312C92.7616 18.2033 91.5188 17.3551 88.9564 17.3551C86.7613 17.3551 84.6387 18.1301 84.532 20.6359H80.7268C80.8378 16.0247 84.643 14.1819 88.9564 14.1819C94.077 14.1819 96.5283 16.3562 96.5283 19.8222V33.7979H92.9068V31.5461V31.5547ZM87.4574 31.15C90.054 31.15 92.7616 29.712 92.7616 26.2805V24.3645L87.6752 25.4323C85.369 25.9102 83.9085 26.4656 83.9085 28.4203C83.9085 30.0435 85.006 31.15 87.4574 31.15Z" fill="black" fill-opacity="0.2"/>
<path d="M120.094 17.6134C118.595 17.6134 115.593 18.4616 115.593 23.1805V33.8022H111.753V21.8544C111.753 19.383 110.545 17.6134 108.204 17.6134C106.705 17.6134 103.707 18.4616 103.707 23.1805V33.8022H99.868V14.6254H103.562V17.3163C104.66 15.5468 106.488 14.1819 109.234 14.1819C111.98 14.1819 113.914 15.6587 114.867 17.833C116.109 15.7663 118.121 14.1819 121.123 14.1819C125.296 14.1819 127.491 17.5015 127.491 21.4453V33.7979H123.651V21.8501C123.651 19.3787 122.443 17.6091 120.103 17.6091L120.094 17.6134Z" fill="black"/>
<path d="M120.094 17.6134C118.595 17.6134 115.593 18.4616 115.593 23.1805V33.8022H111.753V21.8544C111.753 19.383 110.545 17.6134 108.204 17.6134C106.705 17.6134 103.707 18.4616 103.707 23.1805V33.8022H99.868V14.6254H103.562V17.3163C104.66 15.5468 106.488 14.1819 109.234 14.1819C111.98 14.1819 113.914 15.6587 114.867 17.833C116.109 15.7663 118.121 14.1819 121.123 14.1819C125.296 14.1819 127.491 17.5015 127.491 21.4453V33.7979H123.651V21.8501C123.651 19.3787 122.443 17.6091 120.103 17.6091L120.094 17.6134Z" fill="black" fill-opacity="0.2"/>
<path d="M120.094 17.6134C118.595 17.6134 115.593 18.4616 115.593 23.1805V33.8022H111.753V21.8544C111.753 19.383 110.545 17.6134 108.204 17.6134C106.705 17.6134 103.707 18.4616 103.707 23.1805V33.8022H99.868V14.6254H103.562V17.3163C104.66 15.5468 106.488 14.1819 109.234 14.1819C111.98 14.1819 113.914 15.6587 114.867 17.833C116.109 15.7663 118.121 14.1819 121.123 14.1819C125.296 14.1819 127.491 17.5015 127.491 21.4453V33.7979H123.651V21.8501C123.651 19.3787 122.443 17.6091 120.103 17.6091L120.094 17.6134Z" fill="black" fill-opacity="0.2"/>
<path d="M142.942 31.5547C141.298 33.5826 139.21 34.2457 136.908 34.2457C132.701 34.2457 129.993 32.2178 129.993 28.5279C129.993 25.1352 132.479 23.4001 137.053 22.5519L142.797 21.4841V20.2312C142.797 18.2033 141.554 17.3551 138.992 17.3551C136.797 17.3551 134.674 18.1301 134.567 20.6359H130.762C130.873 16.0247 134.678 14.1819 138.992 14.1819C144.112 14.1819 146.564 16.3562 146.564 19.8222V33.7979H142.942V31.5461V31.5547ZM137.493 31.15C140.089 31.15 142.797 29.712 142.797 26.2805V24.3645L137.711 25.4323C135.404 25.9102 133.944 26.4656 133.944 28.4203C133.944 30.0435 135.041 31.15 137.493 31.15Z" fill="black"/>
<path d="M142.942 31.5547C141.298 33.5826 139.21 34.2457 136.908 34.2457C132.701 34.2457 129.993 32.2178 129.993 28.5279C129.993 25.1352 132.479 23.4001 137.053 22.5519L142.797 21.4841V20.2312C142.797 18.2033 141.554 17.3551 138.992 17.3551C136.797 17.3551 134.674 18.1301 134.567 20.6359H130.762C130.873 16.0247 134.678 14.1819 138.992 14.1819C144.112 14.1819 146.564 16.3562 146.564 19.8222V33.7979H142.942V31.5461V31.5547ZM137.493 31.15C140.089 31.15 142.797 29.712 142.797 26.2805V24.3645L137.711 25.4323C135.404 25.9102 133.944 26.4656 133.944 28.4203C133.944 30.0435 135.041 31.15 137.493 31.15Z" fill="black" fill-opacity="0.2"/>
<path d="M142.942 31.5547C141.298 33.5826 139.21 34.2457 136.908 34.2457C132.701 34.2457 129.993 32.2178 129.993 28.5279C129.993 25.1352 132.479 23.4001 137.053 22.5519L142.797 21.4841V20.2312C142.797 18.2033 141.554 17.3551 138.992 17.3551C136.797 17.3551 134.674 18.1301 134.567 20.6359H130.762C130.873 16.0247 134.678 14.1819 138.992 14.1819C144.112 14.1819 146.564 16.3562 146.564 19.8222V33.7979H142.942V31.5461V31.5547ZM137.493 31.15C140.089 31.15 142.797 29.712 142.797 26.2805V24.3645L137.711 25.4323C135.404 25.9102 133.944 26.4656 133.944 28.4203C133.944 30.0435 135.041 31.15 137.493 31.15Z" fill="black" fill-opacity="0.2"/>
<path d="M150.467 7.25H154.213V33.8022H150.467V7.25Z" fill="black"/>
<path d="M150.467 7.25H154.213V33.8022H150.467V7.25Z" fill="black" fill-opacity="0.2"/>
<path d="M150.467 7.25H154.213V33.8022H150.467V7.25Z" fill="black" fill-opacity="0.2"/>
<path d="M73.2275 7.25H76.9729V33.8022H73.2275V7.25Z" fill="black"/>
<path d="M73.2275 7.25H76.9729V33.8022H73.2275V7.25Z" fill="black" fill-opacity="0.2"/>
<path d="M73.2275 7.25H76.9729V33.8022H73.2275V7.25Z" fill="black" fill-opacity="0.2"/>
<path d="M166.961 17.6134C165.496 17.6134 162.096 18.4616 162.096 23.1805V33.8022H158.257V14.6254H161.951V17.3163C163.232 15.508 165.205 14.1819 167.985 14.1819C172.594 14.1819 174.755 17.5015 174.755 21.4453V33.7979H170.949V21.8501C170.949 19.3787 169.741 17.6091 166.961 17.6091V17.6134Z" fill="black"/>
<path d="M166.961 17.6134C165.496 17.6134 162.096 18.4616 162.096 23.1805V33.8022H158.257V14.6254H161.951V17.3163C163.232 15.508 165.205 14.1819 167.985 14.1819C172.594 14.1819 174.755 17.5015 174.755 21.4453V33.7979H170.949V21.8501C170.949 19.3787 169.741 17.6091 166.961 17.6091V17.6134Z" fill="black" fill-opacity="0.2"/>
<path d="M166.961 17.6134C165.496 17.6134 162.096 18.4616 162.096 23.1805V33.8022H158.257V14.6254H161.951V17.3163C163.232 15.508 165.205 14.1819 167.985 14.1819C172.594 14.1819 174.755 17.5015 174.755 21.4453V33.7979H170.949V21.8501C170.949 19.3787 169.741 17.6091 166.961 17.6091V17.6134Z" fill="black" fill-opacity="0.2"/>
<path d="M192.337 33.8065V31.0768C191.022 33.0315 188.933 34.25 186.119 34.25C180.524 34.25 177.449 29.9703 177.449 24.2181C177.449 18.4659 180.524 14.1862 186.119 14.1862C188.861 14.1862 190.876 15.2927 192.192 17.1743V7.25431H196.031V33.8065H192.337ZM186.849 30.9261C190.543 30.9261 192.299 28.162 192.299 24.2138C192.299 20.2656 190.543 17.5015 186.849 17.5015C183.155 17.5015 181.4 20.2656 181.4 24.2138C181.4 28.162 183.155 30.9261 186.849 30.9261Z" fill="black"/>
<path d="M192.337 33.8065V31.0768C191.022 33.0315 188.933 34.25 186.119 34.25C180.524 34.25 177.449 29.9703 177.449 24.2181C177.449 18.4659 180.524 14.1862 186.119 14.1862C188.861 14.1862 190.876 15.2927 192.192 17.1743V7.25431H196.031V33.8065H192.337ZM186.849 30.9261C190.543 30.9261 192.299 28.162 192.299 24.2138C192.299 20.2656 190.543 17.5015 186.849 17.5015C183.155 17.5015 181.4 20.2656 181.4 24.2138C181.4 28.162 183.155 30.9261 186.849 30.9261Z" fill="black" fill-opacity="0.2"/>
<path d="M192.337 33.8065V31.0768C191.022 33.0315 188.933 34.25 186.119 34.25C180.524 34.25 177.449 29.9703 177.449 24.2181C177.449 18.4659 180.524 14.1862 186.119 14.1862C188.861 14.1862 190.876 15.2927 192.192 17.1743V7.25431H196.031V33.8065H192.337ZM186.849 30.9261C190.543 30.9261 192.299 28.162 192.299 24.2138C192.299 20.2656 190.543 17.5015 186.849 17.5015C183.155 17.5015 181.4 20.2656 181.4 24.2138C181.4 28.162 183.155 30.9261 186.849 30.9261Z" fill="black" fill-opacity="0.2"/>
<path d="M198.623 24.2181C198.623 18.4659 202.134 14.1862 207.767 14.1862C213.4 14.1862 216.911 18.3884 216.911 24.4032V25.5098H202.535C202.903 28.8293 204.692 31.0036 207.767 31.0036C210.107 31.0036 211.863 29.8971 212.67 27.9424H216.509C215.3 31.7399 212.119 34.25 207.767 34.25C202.134 34.25 198.623 29.9703 198.623 24.2181ZM212.926 22.4442C212.452 19.4217 210.658 17.4283 207.767 17.4283C204.876 17.4283 203.082 19.4217 202.608 22.4442H212.926Z" fill="black"/>
<path d="M198.623 24.2181C198.623 18.4659 202.134 14.1862 207.767 14.1862C213.4 14.1862 216.911 18.3884 216.911 24.4032V25.5098H202.535C202.903 28.8293 204.692 31.0036 207.767 31.0036C210.107 31.0036 211.863 29.8971 212.67 27.9424H216.509C215.3 31.7399 212.119 34.25 207.767 34.25C202.134 34.25 198.623 29.9703 198.623 24.2181ZM212.926 22.4442C212.452 19.4217 210.658 17.4283 207.767 17.4283C204.876 17.4283 203.082 19.4217 202.608 22.4442H212.926Z" fill="black" fill-opacity="0.2"/>
<path d="M198.623 24.2181C198.623 18.4659 202.134 14.1862 207.767 14.1862C213.4 14.1862 216.911 18.3884 216.911 24.4032V25.5098H202.535C202.903 28.8293 204.692 31.0036 207.767 31.0036C210.107 31.0036 211.863 29.8971 212.67 27.9424H216.509C215.3 31.7399 212.119 34.25 207.767 34.25C202.134 34.25 198.623 29.9703 198.623 24.2181ZM212.926 22.4442C212.452 19.4217 210.658 17.4283 207.767 17.4283C204.876 17.4283 203.082 19.4217 202.608 22.4442H212.926Z" fill="black" fill-opacity="0.2"/>
<path d="M225.87 27.0555L221.04 33.8065H216.65L223.675 23.9985L216.979 14.6297H221.442L225.905 20.8641L230.329 14.6297H234.719L228.1 23.921L235.125 33.8065H230.662L225.87 27.0555Z" fill="black"/>
<path d="M225.87 27.0555L221.04 33.8065H216.65L223.675 23.9985L216.979 14.6297H221.442L225.905 20.8641L230.329 14.6297H234.719L228.1 23.921L235.125 33.8065H230.662L225.87 27.0555Z" fill="black" fill-opacity="0.2"/>
<path d="M225.87 27.0555L221.04 33.8065H216.65L223.675 23.9985L216.979 14.6297H221.442L225.905 20.8641L230.329 14.6297H234.719L228.1 23.921L235.125 33.8065H230.662L225.87 27.0555Z" fill="black" fill-opacity="0.2"/>
<defs>
<linearGradient id="paint0_linear_4127_35669" x1="6.1696" y1="5.35542" x2="30.1516" y2="37.6786" gradientUnits="userSpaceOnUse">
<stop stop-color="#37D7FA"/>
<stop offset="0.4" stop-color="#4B72FE"/>
<stop offset="0.68" stop-color="#FF8DF2"/>
<stop offset="1" stop-color="#FF8705"/>
</linearGradient>
</defs>
</svg>
